<svg xmlns="http://www.w3.org/2000/svg" data-name="Artboard 30" viewBox="0 0 64 64"><rect width="17" height="9" x="35" y="42" fill="#f4b2b0" rx="1"/><rect width="17" height="9" x="12" y="42" fill="#f4b2b0" rx="1"/><rect width="10" height="8" x="41" y="10" fill="#f4b2b0" rx="1"/><rect width="9" height="8" x="13" y="26" fill="#f4b2b0" rx="1"/><path fill="#f4b2b0" d="M10 55H5.327a1 1 0 00-1 1v5a1 1 0 001 1H8.573a1 1 0 00.961-.725l1.428-5A1 1 0 0010 55zM59 55H54.326a1 1 0 00-.961 1.275l1.427 5a1 1 0 00.962.727H59a1 1 0 001-1V56A1 1 0 0059 55z"/><rect width="60" height="4" x="2" y="2" fill="#f4b2b0" rx="1"/><path fill="#b3404a" d="M62,1H2A1,1,0,0,0,1,2V6A1,1,0,0,0,2,7H3V62a1,1,0,0,0,1,1H9a1,1,0,0,0,.962-.726L11.755,56h40.49l1.793,6.274A1,1,0,0,0,55,63h5a1,1,0,0,0,1-1V7h1a1,1,0,0,0,1-1V2A1,1,0,0,0,62,1ZM7,7V54H5V7ZM9,54V39H55V54Zm4-43h2v6H13Zm4,0h2v6H17Zm4,0h2v6H21Zm21,1V11h8v6H42Zm-2,5H33V13h7Zm15,2v2H9V19Zm0,18H9V35H55ZM23,29h6v4H23Zm-2,4H14V27h7Zm30,0H49V27h2Zm-4,0H45V27h2Zm-4,0H41V27h2Zm12,0H53V27h2Zm0-8H40a1,1,0,0,0-1,1v7H31V28a1,1,0,0,0-1-1H23V26a1,1,0,0,0-1-1H13a1,1,0,0,0-1,1v7H9V23H55ZM11,17H9V11h2Zm44,0H52V10a1,1,0,0,0-1-1H41a1,1,0,0,0-1,1v1H32a1,1,0,0,0-1,1v5H25V10a1,1,0,0,0-1-1H9V7H55ZM8.246,61H5V56H9.674Zm47.508,0-1.428-5H59v5ZM59,54H57V7h2ZM61,5H3V3H61Z"/><path fill="#b3404a" d="M52 41H35a1 1 0 00-1 1v9a1 1 0 001 1H52a1 1 0 001-1V42A1 1 0 0052 41zm-1 9H36V43H51zM29 41H12a1 1 0 00-1 1v9a1 1 0 001 1H29a1 1 0 001-1V42A1 1 0 0029 41zm-1 9H13V43H28z"/><rect width="7" height="2" x="40" y="45" fill="#b3404a"/><rect width="7" height="2" x="17" y="45" fill="#b3404a"/></svg>