<svg xmlns="http://www.w3.org/2000/svg" enable-background="new 0 0 512 512" viewBox="0 0 512 512"><path fill="#ee8e9a" d="M237.075,43.307C109.14,43.307,5.458,146.988,5.458,274.924S109.14,506.541,237.075,506.541
			s231.617-103.681,231.617-231.617S365.011,43.307,237.075,43.307z M237.075,367.464c-51.014,0-92.54-41.526-92.54-92.54
			s41.526-92.487,92.54-92.487s92.487,41.472,92.487,92.487S288.09,367.464,237.075,367.464z"/><path fill="#ee8e9a" d="M237.075,182.437c-51.014,0-92.54,41.472-92.54,92.487s41.526,92.54,92.54,92.54
			s92.487-41.526,92.487-92.54S288.09,182.437,237.075,182.437z M237.075,337.559c-34.543,0-62.635-28.093-62.635-62.635
			c0-34.49,28.093-62.582,62.635-62.582c34.489,0,62.582,28.092,62.582,62.582C299.657,309.466,271.565,337.559,237.075,337.559z"/><path fill="#fddae4" d="M506.54,68.342c0,67.372-113.034,143.978-113.034,143.978S280.43,135.714,280.43,68.342
			c0-34.726,28.157-62.883,62.883-62.883c20.485,0,38.685,9.793,50.192,24.974c11.467-15.18,29.666-24.974,50.151-24.974
			C478.383,5.459,506.54,33.616,506.54,68.342z"/><path fill="#db5b6b" d="M237.062 85.976c2.946 0 5.331-2.384 5.331-5.331s-2.384-5.331-5.331-5.331c-110.07 0-199.618 89.549-199.618 199.618 0 2.946 2.384 5.331 5.331 5.331 2.946 0 5.331-2.384 5.331-5.331C48.104 170.741 132.869 85.976 237.062 85.976zM237.062 463.89c-2.946 0-5.331 2.384-5.331 5.331s2.384 5.331 5.331 5.331c110.07 0 199.618-89.549 199.618-199.618 0-2.946-2.384-5.331-5.331-5.331s-5.331 2.384-5.331 5.331C426.019 379.126 341.254 463.89 237.062 463.89z"/><path fill="#db5b6b" d="M237.062 117.106c2.946 0 5.331-2.384 5.331-5.331s-2.384-5.331-5.331-5.331c-92.906 0-168.488 75.582-168.488 168.488 0 2.946 2.384 5.331 5.331 5.331s5.331-2.384 5.331-5.331C79.235 187.909 150.038 117.106 237.062 117.106zM394.889 274.933c0 87.029-70.803 157.832-157.827 157.832-2.946 0-5.331 2.384-5.331 5.331s2.384 5.331 5.331 5.331c92.906 0 168.488-75.587 168.488-168.493 0-2.946-2.384-5.331-5.331-5.331S394.889 271.987 394.889 274.933z"/><path fill="#db5b6b" d="M237.062 148.236c2.946 0 5.331-2.384 5.331-5.331 0-2.946-2.384-5.331-5.331-5.331-75.738 0-137.358 61.62-137.358 137.358 0 2.946 2.384 5.331 5.331 5.331s5.331-2.384 5.331-5.331C110.365 205.072 167.201 148.236 237.062 148.236zM237.062 401.635c-2.946 0-5.331 2.384-5.331 5.331s2.384 5.331 5.331 5.331c75.743 0 137.363-61.62 137.363-137.363 0-2.946-2.384-5.331-5.331-5.331-2.946 0-5.331 2.384-5.331 5.331C363.764 344.799 306.928 401.635 237.062 401.635z"/><path fill="#db5b6b" d="M334.919,274.933c0-53.957-43.9-97.852-97.857-97.852s-97.852,43.895-97.852,97.852
			s43.895,97.857,97.852,97.857S334.919,328.89,334.919,274.933z M149.871,274.933c0-48.075,39.116-87.191,87.191-87.191
			c48.08,0,87.196,39.116,87.196,87.191c0,48.08-39.116,87.196-87.196,87.196C188.987,362.129,149.871,323.013,149.871,274.933z"/><path fill="#db5b6b" d="M305.012,274.933c0-37.466-30.485-67.945-67.95-67.945s-67.945,30.479-67.945,67.945
			s30.479,67.95,67.945,67.95S305.012,312.399,305.012,274.933z M179.778,274.933c0-31.588,25.695-57.284,57.284-57.284
			s57.289,25.695,57.289,57.284s-25.701,57.289-57.289,57.289S179.778,306.521,179.778,274.933z"/><path fill="#db5b6b" d="M511.871,68.344c0-37.617-30.599-68.216-68.216-68.216c-19.339,0-37.278,7.939-50.157,21.989
			c-12.91-14.05-30.859-21.989-50.183-21.989c-28.302,0-52.621,17.327-62.935,41.927C266.325,39.443,251.863,38,237.062,38
			C106.414,38,0.129,144.285,0.129,274.933s106.285,236.938,236.933,236.938S474,405.581,474,274.933
			c0-36.662-8.49-71.333-23.431-102.339C480.582,143.952,511.871,105.245,511.871,68.344z M343.315,10.79
			c18.184,0,34.93,8.334,45.94,22.864c2.14,2.813,6.373,2.813,8.501-0.01c10.974-14.524,27.705-22.853,45.899-22.853
			c31.734,0,57.554,25.82,57.554,57.554c0,57.783-90.007,124.838-107.706,137.462c-17.699-12.619-107.743-79.679-107.743-137.462
			C285.761,36.61,311.581,10.79,343.315,10.79z M463.339,274.933c0,124.771-101.506,226.277-226.277,226.277
			c-124.765,0-226.272-101.506-226.272-226.277c0-124.765,101.506-226.272,226.272-226.272c13.664,0,27.021,1.301,40.023,3.638
			c-1.25,5.156-1.985,10.51-1.985,16.045c0,69.397,110.7,145.193,115.416,148.389c1.785,1.207,4.15,1.235,5.976,0
			c1.977-1.341,22.611-15.487,45.889-36.549C455.756,209.036,463.339,241.097,463.339,274.933z"/></svg>