<?xml version="1.0" encoding="UTF-8" standalone="no"?>
<svg
   viewBox="0 0 512 512"
   version="1.1"
   id="svg32"
   sodipodi:docname="smart-joystick.svg"
   inkscape:version="1.2.2 (732a01da63, 2022-12-09, custom)"
   xmlns:inkscape="http://www.inkscape.org/namespaces/inkscape"
   xmlns:sodipodi="http://sodipodi.sourceforge.net/DTD/sodipodi-0.dtd"
   xmlns="http://www.w3.org/2000/svg"
   xmlns:svg="http://www.w3.org/2000/svg">
  <defs
     id="defs36" />
  <sodipodi:namedview
     id="namedview34"
     pagecolor="#ffffff"
     bordercolor="#000000"
     borderopacity="0.25"
     inkscape:showpageshadow="2"
     inkscape:pageopacity="0.0"
     inkscape:pagecheckerboard="0"
     inkscape:deskcolor="#d1d1d1"
     showgrid="false"
     inkscape:zoom="0.76953125"
     inkscape:cx="-25.340102"
     inkscape:cy="255.35025"
     inkscape:window-width="1846"
     inkscape:window-height="1016"
     inkscape:window-x="0"
     inkscape:window-y="0"
     inkscape:window-maximized="1"
     inkscape:current-layer="svg32" />
  <path
     fill="#a4c2f7"
     d="M486 265.971c0 37-18.27 69.74-46.28 89.68l-9.53 90.54c-1.19 11.31-6.55 21.25-14.46 28.37-26.883 24.198-70.131 7.646-73.92-28.37l-7.39-70.22H177.58l-7.39 70.22c-1.19 11.31-6.55 21.25-14.46 28.37-26.883 24.198-70.131 7.646-73.92-28.37l-9.53-90.54C44.27 335.711 26 302.971 26 265.971c0-60.75 49.25-110 110-110 42.75 0 79.8 24.39 98 60h43.99c18.21-35.61 55.26-60 98.01-60 60.75 0 110 49.25 110 110z"
     id="path18"
     style="fill:#e9afaf" />
  <path
     fill="#fff"
     d="M426 255.971v30h-30v30h-30v-30h-30v-30h30v-30h30v30zM136 265.971h40v40h-40zM136 225.971h40v40h-40zM96 265.971h40v40H96zM96 225.971h40v40H96z"
     id="path20" />
  <path
     fill="#418cfe"
     d="M386 495.971a54.316 54.316 0 0 1-54.135-48.734l-6.448-61.266H186.583l-6.448 61.267a54.342 54.342 0 0 1-17.715 34.756A54.352 54.352 0 0 1 126 495.972a54.315 54.315 0 0 1-54.135-48.734l-9.07-86.171C33.409 338.403 16 303.195 16 265.971c0-66.168 53.832-120 120-120 43.234 0 82.511 22.833 103.943 60h32.104c21.442-37.166 60.722-60 103.952-60 66.168 0 120 53.832 120 120 0 37.224-17.409 72.432-46.794 95.095l-9.07 86.172a54.344 54.344 0 0 1-17.715 34.756A54.354 54.354 0 0 1 386 495.971zm-208.42-130h156.84a10 10 0 0 1 9.945 8.953l7.391 70.22A34.357 34.357 0 0 0 386 475.971a34.388 34.388 0 0 0 23.04-8.843 34.37 34.37 0 0 0 11.205-21.984l9.53-90.54a10.006 10.006 0 0 1 4.146-7.1C460.269 328.747 476 298.268 476 265.971c0-55.141-44.859-100-100-100-37.756 0-71.899 20.903-89.106 54.553a9.997 9.997 0 0 1-8.903 5.447H234a9.998 9.998 0 0 1-8.904-5.449c-17.198-33.648-51.337-54.551-89.096-54.551-55.14 0-100 44.859-100 100 0 32.297 15.73 62.776 42.079 81.533a10 10 0 0 1 4.146 7.1l9.53 90.54A34.358 34.358 0 0 0 126 475.971a34.388 34.388 0 0 0 23.04-8.843 34.37 34.37 0 0 0 11.205-21.983l7.391-70.221a10 10 0 0 1 9.944-8.953zm156.2-297.78a9.97 9.97 0 0 1-7.071-2.929c-38.988-38.99-102.429-38.99-141.417 0-3.905 3.904-10.237 3.904-14.143 0-3.905-3.905-3.905-10.237 0-14.143 46.788-46.788 122.917-46.786 169.703 0 3.905 3.905 3.905 10.237 0 14.143a9.975 9.975 0 0 1-7.072 2.929z"
     id="path22"
     style="fill:#d35f5f" />
  <path
     fill="#418cfe"
     d="M299.21 102.761a9.963 9.963 0 0 1-7.072-2.931c-9.651-9.654-22.484-14.972-36.137-14.972s-26.487 5.317-36.137 14.972c-3.904 3.907-10.237 3.908-14.142.003-3.906-3.904-3.908-10.235-.003-14.142C219.146 72.257 237.004 64.859 256 64.859s36.854 7.398 50.282 20.833c3.904 3.906 3.903 10.237-.003 14.142a9.97 9.97 0 0 1-7.069 2.927zm-29.07 29.07a9.969 9.969 0 0 1-7.071-2.929c-1.889-1.889-4.399-2.93-7.069-2.93s-5.18 1.041-7.069 2.93c-3.905 3.904-10.237 3.904-14.142 0-3.905-3.905-3.906-10.236 0-14.143 5.666-5.666 13.199-8.787 21.211-8.787s15.545 3.121 21.211 8.787c3.905 3.906 3.905 10.237 0 14.143a9.966 9.966 0 0 1-7.071 2.929zM256 225.971c-5.523 0-10-4.478-10-10v-60c0-5.522 4.477-10 10-10s10 4.478 10 10v60c0 5.522-4.477 10-10 10zm-160 50c-5.523 0-10-4.478-10-10v-40c0-5.522 4.477-10 10-10h40c5.523 0 10 4.478 10 10s-4.477 10-10 10h-30v30c0 5.522-4.477 10-10 10z"
     id="path24"
     style="fill:#d35f5f;fill-opacity:1" />
  <path
     fill="#418cfe"
     d="M136 315.971H96c-5.523 0-10-4.478-10-10v-40c0-5.522 4.477-10 10-10h40c5.523 0 10 4.478 10 10s-4.477 10-10 10h-30v20h30c5.523 0 10 4.478 10 10s-4.477 10-10 10z"
     id="path26"
     style="fill:#d35f5f;fill-opacity:1" />
  <path
     fill="#418cfe"
     d="M176 275.971c-5.523 0-10-4.478-10-10v-30h-20v30c0 5.522-4.477 10-10 10s-10-4.478-10-10v-40c0-5.522 4.477-10 10-10h40c5.523 0 10 4.478 10 10v40c0 5.522-4.477 10-10 10z"
     id="path28"
     style="fill:#d35f5f;fill-opacity:1" />
  <path
     fill="#418cfe"
     d="M176 315.971h-40c-5.523 0-10-4.478-10-10v-40c0-5.522 4.477-10 10-10h40c5.523 0 10 4.478 10 10v40c0 5.522-4.477 10-10 10zm-30-20h20v-20h-20v20zm250 30h-30c-5.522 0-10-4.478-10-10v-20h-20c-5.522 0-10-4.478-10-10v-30c0-5.522 4.478-10 10-10h20v-20c0-5.522 4.478-10 10-10h30c5.522 0 10 4.478 10 10v20h20c5.522 0 10 4.478 10 10v30c0 5.522-4.478 10-10 10h-20v20c0 5.522-4.478 10-10 10zm-20-20h10v-20c0-5.522 4.478-10 10-10h20v-10h-20c-5.522 0-10-4.478-10-10v-20h-10v20c0 5.522-4.478 10-10 10h-20v10h20c5.522 0 10 4.478 10 10v20z"
     id="path30"
     style="fill:#d35f5f;fill-opacity:1" />
</svg>
