<?xml version="1.0" encoding="UTF-8" standalone="no"?>
<svg
   version="1.0"
   width="64.000000pt"
   height="64.000000pt"
   viewBox="0 0 64.000000 64.000000"
   preserveAspectRatio="xMidYMid meet"
   id="svg40"
   sodipodi:docname="videogame.svg"
   inkscape:version="1.2.2 (732a01da63, 2022-12-09, custom)"
   xmlns:inkscape="http://www.inkscape.org/namespaces/inkscape"
   xmlns:sodipodi="http://sodipodi.sourceforge.net/DTD/sodipodi-0.dtd"
   xmlns="http://www.w3.org/2000/svg"
   xmlns:svg="http://www.w3.org/2000/svg">
  <defs
     id="defs44" />
  <sodipodi:namedview
     id="namedview42"
     pagecolor="#ffffff"
     bordercolor="#000000"
     borderopacity="0.25"
     inkscape:showpageshadow="2"
     inkscape:pageopacity="0.0"
     inkscape:pagecheckerboard="0"
     inkscape:deskcolor="#d1d1d1"
     inkscape:document-units="pt"
     showgrid="false"
     inkscape:zoom="9.234375"
     inkscape:cx="42.666667"
     inkscape:cy="42.720812"
     inkscape:window-width="1846"
     inkscape:window-height="1016"
     inkscape:window-x="0"
     inkscape:window-y="0"
     inkscape:window-maximized="1"
     inkscape:current-layer="svg40" />
  <g
     transform="translate(0.000000,64.000000) scale(0.100000,-0.100000)"
     fill="#000000"
     stroke="none"
     id="g38"
     style="fill:#ff2a2a">
    <path
       d="M448 618 c-16 -5 -28 -14 -28 -19 0 -5 -81 -9 -189 -9 -159 0 -192 -3 -205 -16 -13 -13 -16 -45 -16 -194 0 -205 2 -210 76 -210 49 0 50 -2 35 -76 -10 -54 1 -74 44 -74 31 0 35 4 51 47 26 71 29 73 105 73 75 0 76 -1 100 -70 16 -47 32 -56 76 -45 25 6 25 7 19 76 l-7 69 45 0 c74 0 76 5 76 210 0 197 -4 210 -61 210 -16 0 -29 4 -29 9 0 7 -59 34 -64 30 -1 0 -13 -5 -28 -11z m82 -28 c11 -11 20 -33 20 -50 0 -17 -9 -39 -20 -50 -43 -43 -120 -11 -120 50 0 17 9 39 20 50 11 11 33 20 50 20 17 0 39 -9 50 -20z m-134 -36 c-3 -9 -6 -18 -6 -20 0 -2 -81 -4 -180 -4 -173 0 -180 1 -180 20 0 19 7 20 186 20 166 0 185 -2 180 -16z m214 -4 c0 -13 -7 -20 -20 -20 -11 0 -20 2 -20 4 0 2 -3 11 -6 20 -5 12 0 16 20 16 19 0 26 -5 26 -20z m-201 -59 c24 -45 118 -45 142 0 5 11 20 19 34 19 l25 0 0 -160 0 -160 -51 0 c-29 0 -48 4 -44 10 3 5 -1 24 -9 43 -17 41 -62 62 -102 47 -33 -13 -135 -13 -168 0 -40 15 -85 -6 -102 -47 -8 -19 -12 -38 -9 -43 4 -6 -15 -10 -44 -10 l-51 0 0 160 0 160 185 0 c171 0 185 -1 194 -19z m-149 -231 c43 -43 11 -120 -50 -120 -61 0 -93 77 -50 120 11 11 33 20 50 20 17 0 39 -9 50 -20z m220 0 c43 -43 11 -120 -50 -120 -38 0 -70 32 -70 70 0 38 32 70 70 70 17 0 39 -9 50 -20z m-130 -25 c-6 -16 -6 -34 0 -50 9 -24 8 -25 -30 -25 -38 0 -39 1 -30 25 6 16 6 34 0 50 -9 24 -8 25 30 25 38 0 39 -1 30 -25z m-136 -139 c-18 -58 -24 -66 -48 -66 -33 0 -39 12 -31 69 l7 49 39 -16 c33 -13 38 -19 33 -36z m292 -51 c-9 -24 -55 -19 -65 8 -24 63 -23 63 16 79 l38 14 9 -43 c4 -24 6 -50 2 -58z"
       id="path18"
       style="fill:#ff2a2a" />
    <path
       d="M453 570 c-13 -5 -23 -11 -23 -12 0 -2 22 -3 50 -3 48 0 55 7 15 18 -11 3 -30 2 -42 -3z"
       id="path20"
       style="fill:#ff2a2a" />
    <path
       d="M460 540 c-11 -7 -6 -10 20 -10 26 0 31 3 20 10 -8 5 -17 10 -20 10 -3 0 -12 -5 -20 -10z"
       id="path22"
       style="fill:#ff2a2a" />
    <path
       d="M60 550 c0 -5 16 -10 35 -10 19 0 35 5 35 10 0 6 -16 10 -35 10 -19 0 -35 -4 -35 -10z"
       id="path24"
       style="fill:#ff2a2a" />
    <path
       d="M70 460 c0 -6 27 -10 60 -10 33 0 60 4 60 10 0 6 -27 10 -60 10 -33 0 -60 -4 -60 -10z"
       id="path26"
       style="fill:#ff2a2a" />
    <path
       d="M70 430 c0 -6 27 -10 60 -10 33 0 60 4 60 10 0 6 -27 10 -60 10 -33 0 -60 -4 -60 -10z"
       id="path28"
       style="fill:#ff2a2a" />
    <path
       d="M470 408 c0 -12 -15 -38 -32 -58 -30 -32 -29 -32 10 5 39 36 56 75 32 75 -5 0 -10 -10 -10 -22z"
       id="path30"
       style="fill:#ff2a2a" />
    <path
       d="M70 400 c0 -5 7 -10 15 -10 8 0 15 5 15 10 0 6 -7 10 -15 10 -8 0 -15 -4 -15 -10z"
       id="path32"
       style="fill:#ff2a2a" />
    <path
       d="M130 400 c0 -5 5 -10 10 -10 6 0 10 5 10 10 0 6 -4 10 -10 10 -5 0 -10 -4 -10 -10z"
       id="path34"
       style="fill:#ff2a2a" />
    <path
       d="M192 224 c-11 -12 -10 -17 2 -30 15 -14 17 -14 32 0 14 14 14 18 0 31 -18 18 -18 18 -34 -1z"
       id="path36"
       style="fill:#ff2a2a" />
  </g>
</svg>
